<svg width="188" height="59" viewBox="0 0 188 59" fill="none" xmlns="http://www.w3.org/2000/svg">
<mask id="path-1-inside-1_146_6" fill="white">
<path d="M122.824 0C122.824 3.60016 125.744 6.51855 129.344 6.51855C132.944 6.5183 135.862 3.6 135.862 0H181.496C181.496 3.59511 184.407 6.5094 188 6.51758V52.1523C184.407 52.1605 181.496 55.0765 181.496 58.6719C181.496 58.7819 181.499 58.8913 181.505 59H135.854C135.859 58.8913 135.862 58.7819 135.862 58.6719C135.862 55.0717 132.944 52.1526 129.344 52.1523C125.743 52.1523 122.824 55.0715 122.824 58.6719C122.824 58.7819 122.828 58.8913 122.833 59H6.0293C6.03469 58.8913 6.03808 58.7819 6.03809 58.6719C6.03809 55.2333 3.37577 52.4171 0 52.1709V7.01855C3.37558 6.77233 6.03784 3.95788 6.03809 0.519531C6.03809 0.344765 6.02912 0.171298 6.01562 0H122.824ZM162.03 24.4697C161.737 24.1768 161.263 24.1768 160.97 24.4697C160.677 24.7626 160.677 25.2374 160.97 25.5303L164.689 29.25H156.5C155.787 29.25 154.7 29.0299 153.813 28.3916C152.965 27.7806 152.25 26.7556 152.25 25C152.25 24.5858 151.914 24.25 151.5 24.25C151.086 24.25 150.75 24.5858 150.75 25C150.75 27.2443 151.702 28.7193 152.937 29.6084C154.133 30.4699 155.547 30.75 156.5 30.75H164.689L160.97 34.4697C160.677 34.7626 160.677 35.2374 160.97 35.5303C161.263 35.8232 161.737 35.8232 162.03 35.5303L167.03 30.5303C167.323 30.2374 167.323 29.7626 167.03 29.4697L162.03 24.4697Z"/>
</mask>
<path d="M122.824 0L123.824 -7.10766e-05L123.824 -1H122.824V0ZM129.344 6.51855V7.51855H129.344L129.344 6.51855ZM135.862 0V-1H134.862L134.862 -7.10762e-05L135.862 0ZM181.496 0L182.496 -7.10766e-05L182.496 -1H181.496V0ZM188 6.51758H189V5.51985L188.002 5.51758L188 6.51758ZM188 52.1523L188.002 53.1523L189 53.1501V52.1523H188ZM181.496 58.6719H180.496V58.6719L181.496 58.6719ZM181.505 59V60H182.556L182.504 58.9504L181.505 59ZM135.854 59L134.855 58.9504L134.803 60H135.854V59ZM135.862 58.6719L136.862 58.6719V58.6719H135.862ZM129.344 52.1523L129.344 51.1523H129.344V52.1523ZM122.824 58.6719H121.824V58.6719L122.824 58.6719ZM122.833 59V60H123.884L123.832 58.9504L122.833 59ZM6.0293 59L5.03053 58.9504L4.97842 60H6.0293V59ZM6.03809 58.6719L7.03809 58.6719V58.6719H6.03809ZM0 52.1709H-1V53.1006L-0.0727395 53.1683L0 52.1709ZM0 7.01855L-0.0727506 6.0212L-1 6.08884V7.01855H0ZM6.03809 0.519531L7.03809 0.519602V0.519531H6.03809ZM6.01562 0V-1H4.93372L5.01872 0.0785571L6.01562 0ZM162.03 24.4697L161.323 25.1768V25.1768L162.03 24.4697ZM160.97 24.4697L160.263 23.7626L160.97 24.4697ZM160.97 25.5303L160.263 26.2374L160.97 25.5303ZM164.689 29.25V30.25H167.104L165.397 28.5429L164.689 29.25ZM153.813 28.3916L153.229 29.2031L153.229 29.2032L153.813 28.3916ZM152.937 29.6084L152.352 30.4199L152.352 30.4199L152.937 29.6084ZM164.689 30.75L165.397 31.4571L167.104 29.75H164.689V30.75ZM160.97 34.4697L161.677 35.1768L160.97 34.4697ZM160.97 35.5303L161.677 34.8232V34.8232L160.97 35.5303ZM162.03 35.5303L161.323 34.8232V34.8232L162.03 35.5303ZM167.03 30.5303L167.737 31.2374V31.2374L167.03 30.5303ZM167.03 29.4697L167.737 28.7626L167.03 29.4697ZM122.824 0L121.824 7.10766e-05C121.825 4.15258 125.191 7.51855 129.344 7.51855V6.51855V5.51855C126.296 5.51855 123.824 3.04773 123.824 -7.10766e-05L122.824 0ZM129.344 6.51855L129.344 7.51855C133.496 7.51826 136.862 4.1523 136.862 7.10762e-05L135.862 0L134.862 -7.10762e-05C134.862 3.0477 132.391 5.51834 129.344 5.51855L129.344 6.51855ZM135.862 0V1H181.496V0V-1H135.862V0ZM181.496 0L180.496 7.10766e-05C180.496 4.14687 183.853 7.50815 187.998 7.51758L188 6.51758L188.002 5.51758C184.96 5.51066 182.496 3.04335 182.496 -7.10766e-05L181.496 0ZM188 6.51758H187V52.1523H188H189V6.51758H188ZM188 52.1523L187.998 51.1523C183.853 51.1618 180.496 54.5251 180.496 58.6719H181.496H182.496C182.496 55.628 184.96 53.1593 188.002 53.1523L188 52.1523ZM181.496 58.6719L180.496 58.6719C180.496 58.8022 180.5 58.9286 180.506 59.0496L181.505 59L182.504 58.9504C182.499 58.854 182.496 58.7616 182.496 58.6718L181.496 58.6719ZM181.505 59V58H135.854V59V60H181.505V59ZM135.854 59L136.852 59.0496C136.858 58.9286 136.862 58.8022 136.862 58.6719L135.862 58.6719L134.862 58.6718C134.862 58.7616 134.86 58.854 134.855 58.9504L135.854 59ZM135.862 58.6719H136.862C136.862 54.5195 133.496 51.1526 129.344 51.1523L129.344 52.1523L129.344 53.1523C132.391 53.1526 134.862 55.6238 134.862 58.6719H135.862ZM129.344 52.1523V51.1523C125.191 51.1523 121.824 54.5192 121.824 58.6719H122.824H123.824C123.824 55.6238 126.296 53.1523 129.344 53.1523V52.1523ZM122.824 58.6719L121.824 58.6719C121.824 58.8022 121.828 58.9286 121.834 59.0496L122.833 59L123.832 58.9504C123.827 58.854 123.824 58.7616 123.824 58.6718L122.824 58.6719ZM122.833 59V58H6.0293V59V60H122.833V59ZM6.0293 59L7.02807 59.0496C7.03407 58.9286 7.03808 58.8022 7.03809 58.6719L6.03809 58.6719L5.03809 58.6718C5.03808 58.7616 5.03531 58.854 5.03053 58.9504L6.0293 59ZM6.03809 58.6719H7.03809C7.03809 54.7052 3.96721 51.4576 0.0727395 51.1735L0 52.1709L-0.0727395 53.1683C2.78432 53.3766 5.03809 55.7613 5.03809 58.6719H6.03809ZM0 52.1709H1V7.01855H0H-1V52.1709H0ZM0 7.01855L0.0727506 8.0159C3.9667 7.73186 7.0378 4.48626 7.03809 0.519602L6.03809 0.519531L5.03809 0.51946C5.03788 3.42951 2.78445 5.81279 -0.0727506 6.0212L0 7.01855ZM6.03809 0.519531H7.03809C7.03809 0.31116 7.02742 0.110295 7.01253 -0.0785571L6.01562 0L5.01872 0.0785571C5.03083 0.232301 5.03809 0.37837 5.03809 0.519531H6.03809ZM6.01562 0V1H122.824V0V-1H6.01562V0ZM162.03 24.4697L162.737 23.7626C162.054 23.0792 160.946 23.0792 160.263 23.7626L160.97 24.4697L161.677 25.1768C161.579 25.2745 161.421 25.2745 161.323 25.1768L162.03 24.4697ZM160.97 24.4697L160.263 23.7626C159.579 24.446 159.579 25.554 160.263 26.2374L160.97 25.5303L161.677 24.8232C161.774 24.9208 161.774 25.0792 161.677 25.1768L160.97 24.4697ZM160.97 25.5303L160.263 26.2374L163.982 29.9571L164.689 29.25L165.397 28.5429L161.677 24.8232L160.97 25.5303ZM164.689 29.25V28.25H156.5V29.25V30.25H164.689V29.25ZM156.5 29.25V28.25C155.947 28.25 155.078 28.0698 154.398 27.58L153.813 28.3916L153.229 29.2032C154.322 29.9901 155.627 30.25 156.5 30.25V29.25ZM153.813 28.3916L154.398 27.5801C153.807 27.1545 153.25 26.4297 153.25 25H152.25H151.25C151.25 27.0815 152.123 28.4068 153.229 29.2031L153.813 28.3916ZM152.25 25H153.25C153.25 24.0335 152.466 23.25 151.5 23.25V24.25V25.25C151.362 25.25 151.25 25.1381 151.25 25H152.25ZM151.5 24.25V23.25C150.534 23.25 149.75 24.0335 149.75 25H150.75H151.75C151.75 25.1381 151.638 25.25 151.5 25.25V24.25ZM150.75 25H149.75C149.75 27.5702 150.86 29.3455 152.352 30.4199L152.937 29.6084L153.521 28.7969C152.544 28.0932 151.75 26.9183 151.75 25H150.75ZM152.937 29.6084L152.352 30.4199C153.755 31.4302 155.387 31.75 156.5 31.75V30.75V29.75C155.707 29.75 154.511 29.5096 153.521 28.7969L152.937 29.6084ZM156.5 30.75V31.75H164.689V30.75V29.75H156.5V30.75ZM164.689 30.75L163.982 30.0429L160.263 33.7626L160.97 34.4697L161.677 35.1768L165.397 31.4571L164.689 30.75ZM160.97 34.4697L160.263 33.7626C159.579 34.446 159.579 35.554 160.263 36.2374L160.97 35.5303L161.677 34.8232C161.774 34.9208 161.774 35.0792 161.677 35.1768L160.97 34.4697ZM160.97 35.5303L160.263 36.2374C160.946 36.9208 162.054 36.9208 162.737 36.2374L162.03 35.5303L161.323 34.8232C161.421 34.7255 161.579 34.7255 161.677 34.8232L160.97 35.5303ZM162.03 35.5303L162.737 36.2374L167.737 31.2374L167.03 30.5303L166.323 29.8232L161.323 34.8232L162.03 35.5303ZM167.03 30.5303L167.737 31.2374C168.421 30.554 168.421 29.446 167.737 28.7626L167.03 29.4697L166.323 30.1768C166.226 30.0792 166.226 29.9208 166.323 29.8232L167.03 30.5303ZM167.03 29.4697L167.737 28.7626L162.737 23.7626L162.03 24.4697L161.323 25.1768L166.323 30.1768L167.03 29.4697Z" fill="#FAF7EF" mask="url(#path-1-inside-1_146_6)"/>
<path d="M37.8182 20.8182H42.8182L44.5227 38.7727V39H41.3409L40.9545 34.6818H39.6818L39.2955 39H36.1136V38.7727L37.8182 20.8182ZM39.7045 31.7273H40.9318L40.4318 25.4773H40.2045L39.7045 31.7273ZM45.2108 20.8182H48.2789V25.4773H48.5062C48.8017 24.6364 49.4153 24.2273 50.3244 24.2273C51.9153 24.2273 52.938 25.4773 52.938 28.2045V35.0227C52.938 37.5227 51.938 39.2273 49.7789 39.2273C48.3017 39.2273 47.5744 38.2045 47.3699 37.1818H47.1426L46.8017 39H45.2108V20.8182ZM48.2789 27.7727V35.6818C48.2789 36.4318 48.5744 36.8409 49.0744 36.8409C49.5744 36.8409 49.8699 36.4318 49.8699 35.6818V27.7727C49.8699 27.0227 49.5744 26.6136 49.0744 26.6136C48.5744 26.6136 48.2789 27.0227 48.2789 27.7727ZM53.7498 30.1364C53.7498 26.7273 54.9998 24.2273 57.7271 24.2273C60.4544 24.2273 61.7044 26.7273 61.7044 30.1364V33.3182C61.7044 36.7273 60.4544 39.2273 57.7271 39.2273C54.9998 39.2273 53.7498 36.7273 53.7498 33.3182V30.1364ZM56.9316 27.5455V35.9091C56.9316 36.6591 57.2271 37.0682 57.7271 37.0682C58.2271 37.0682 58.5225 36.6591 58.5225 35.9091V27.5455C58.5225 26.7955 58.2271 26.3864 57.7271 26.3864C57.2271 26.3864 56.9316 26.7955 56.9316 27.5455ZM65.5936 24.4545V35.6818C65.5936 36.4318 65.8663 36.8409 66.3663 36.8409C66.8663 36.8409 67.1845 36.4318 67.1845 35.6818V24.4545H70.2527V39H68.2072L67.9799 37.1818H67.7527C67.3436 38.5 66.5481 39.1136 65.1618 39.1136C63.4118 39.1136 62.5254 37.75 62.5254 35.5682V24.4545H65.5936ZM70.9963 26.3864V24.5227C72.7463 24.3864 73.1326 23.3636 73.269 21.5H75.4281V24.4545H77.019V26.3864H75.4281V36.1591C75.4281 36.8409 75.6554 37.0682 76.2235 37.0682H76.7008L76.8826 38.7727C76.5417 38.9545 75.8826 39.2273 74.9735 39.2273C73.6099 39.2273 72.3599 38.5455 72.3599 36.1591V26.3864H70.9963ZM85.8637 20.8182H89.2728V34.4545C89.2728 37.4091 87.6819 39.2273 85.0683 39.2273C82.4546 39.2273 80.8637 37.4091 80.8637 34.4545V20.8182H84.2728V35.3409C84.2728 36.0909 84.5228 36.5 85.0683 36.5C85.6137 36.5 85.8637 36.0909 85.8637 35.3409V20.8182ZM93.6672 24.2273C95.8263 24.2273 97.2808 25.5455 97.2808 27.9773C97.2808 28.2045 97.3035 28.4318 97.3717 28.6591V28.8864H94.7808C94.6899 28.6591 94.6672 28.3182 94.6672 27.9773V27.5455C94.6672 26.8182 94.4172 26.3864 93.8263 26.3864C93.2581 26.3864 92.9626 26.8182 92.9626 27.4545C92.9626 28.3636 93.7126 29.1364 94.4854 30.0682L94.9172 30.5909C96.1899 32.1364 97.3263 33.5 97.3263 35.5227C97.3263 37.8409 95.8035 39.2273 93.6444 39.2273C91.4854 39.2273 90.0081 37.8409 90.0081 35.25C90.0081 35.0227 89.9854 34.7955 89.9172 34.5682V34.3409H92.5535C92.6444 34.5682 92.6672 34.9091 92.6672 35.25V35.9318C92.6672 36.5909 92.9399 37.0682 93.5308 37.0682C94.1217 37.0682 94.3717 36.5909 94.3717 35.9773C94.3717 34.9091 93.5081 33.9545 92.5308 32.7045L92.1217 32.1818C91.0081 30.75 90.0081 29.5682 90.0081 27.8636C90.0081 25.5455 91.6217 24.2273 93.6672 24.2273Z" fill="white"/>
<path d="M129.344 6.51953V52.1529" stroke="white" stroke-width="0.651906" stroke-dasharray="2 2"/>
</svg>
