<svg width="188" height="59" viewBox="0 0 188 59" fill="none" xmlns="http://www.w3.org/2000/svg">
<mask id="path-1-inside-1_146_6" fill="white">
<path d="M122.824 0C122.824 3.60016 125.744 6.51855 129.344 6.51855C132.944 6.5183 135.862 3.6 135.862 0H181.496C181.496 3.59511 184.407 6.5094 188 6.51758V52.1523C184.407 52.1605 181.496 55.0765 181.496 58.6719C181.496 58.7819 181.499 58.8913 181.505 59H135.854C135.859 58.8913 135.862 58.7819 135.862 58.6719C135.862 55.0717 132.944 52.1526 129.344 52.1523C125.743 52.1523 122.824 55.0715 122.824 58.6719C122.824 58.7819 122.828 58.8913 122.833 59H6.0293C6.03469 58.8913 6.03808 58.7819 6.03809 58.6719C6.03809 55.2333 3.37577 52.4171 0 52.1709V7.01855C3.37558 6.77233 6.03784 3.95788 6.03809 0.519531C6.03809 0.344765 6.02912 0.171298 6.01562 0H122.824ZM162.03 24.4697C161.737 24.1768 161.263 24.1768 160.97 24.4697C160.677 24.7626 160.677 25.2374 160.97 25.5303L164.689 29.25H156.5C155.787 29.25 154.7 29.0299 153.813 28.3916C152.965 27.7806 152.25 26.7556 152.25 25C152.25 24.5858 151.914 24.25 151.5 24.25C151.086 24.25 150.75 24.5858 150.75 25C150.75 27.2443 151.702 28.7193 152.937 29.6084C154.133 30.4699 155.547 30.75 156.5 30.75H164.689L160.97 34.4697C160.677 34.7626 160.677 35.2374 160.97 35.5303C161.263 35.8232 161.737 35.8232 162.03 35.5303L167.03 30.5303C167.323 30.2374 167.323 29.7626 167.03 29.4697L162.03 24.4697Z"/>
</mask>
<path d="M122.824 0L123.824 -7.10766e-05L123.824 -1H122.824V0ZM129.344 6.51855V7.51855H129.344L129.344 6.51855ZM135.862 0V-1H134.862L134.862 -7.10762e-05L135.862 0ZM181.496 0L182.496 -7.10766e-05L182.496 -1H181.496V0ZM188 6.51758H189V5.51985L188.002 5.51758L188 6.51758ZM188 52.1523L188.002 53.1523L189 53.1501V52.1523H188ZM181.496 58.6719H180.496V58.6719L181.496 58.6719ZM181.505 59V60H182.556L182.504 58.9504L181.505 59ZM135.854 59L134.855 58.9504L134.803 60H135.854V59ZM135.862 58.6719L136.862 58.6719V58.6719H135.862ZM129.344 52.1523L129.344 51.1523H129.344V52.1523ZM122.824 58.6719H121.824V58.6719L122.824 58.6719ZM122.833 59V60H123.884L123.832 58.9504L122.833 59ZM6.0293 59L5.03053 58.9504L4.97842 60H6.0293V59ZM6.03809 58.6719L7.03809 58.6719V58.6719H6.03809ZM0 52.1709H-1V53.1006L-0.0727395 53.1683L0 52.1709ZM0 7.01855L-0.0727506 6.0212L-1 6.08884V7.01855H0ZM6.03809 0.519531L7.03809 0.519602V0.519531H6.03809ZM6.01562 0V-1H4.93372L5.01872 0.0785571L6.01562 0ZM162.03 24.4697L161.323 25.1768V25.1768L162.03 24.4697ZM160.97 24.4697L160.263 23.7626L160.97 24.4697ZM160.97 25.5303L160.263 26.2374L160.97 25.5303ZM164.689 29.25V30.25H167.104L165.397 28.5429L164.689 29.25ZM153.813 28.3916L153.229 29.2031L153.229 29.2032L153.813 28.3916ZM152.937 29.6084L152.352 30.4199L152.352 30.4199L152.937 29.6084ZM164.689 30.75L165.397 31.4571L167.104 29.75H164.689V30.75ZM160.97 34.4697L161.677 35.1768L160.97 34.4697ZM160.97 35.5303L161.677 34.8232V34.8232L160.97 35.5303ZM162.03 35.5303L161.323 34.8232V34.8232L162.03 35.5303ZM167.03 30.5303L167.737 31.2374V31.2374L167.03 30.5303ZM167.03 29.4697L167.737 28.7626L167.03 29.4697ZM122.824 0L121.824 7.10766e-05C121.825 4.15258 125.191 7.51855 129.344 7.51855V6.51855V5.51855C126.296 5.51855 123.824 3.04773 123.824 -7.10766e-05L122.824 0ZM129.344 6.51855L129.344 7.51855C133.496 7.51826 136.862 4.1523 136.862 7.10762e-05L135.862 0L134.862 -7.10762e-05C134.862 3.0477 132.391 5.51834 129.344 5.51855L129.344 6.51855ZM135.862 0V1H181.496V0V-1H135.862V0ZM181.496 0L180.496 7.10766e-05C180.496 4.14687 183.853 7.50815 187.998 7.51758L188 6.51758L188.002 5.51758C184.96 5.51066 182.496 3.04335 182.496 -7.10766e-05L181.496 0ZM188 6.51758H187V52.1523H188H189V6.51758H188ZM188 52.1523L187.998 51.1523C183.853 51.1618 180.496 54.5251 180.496 58.6719H181.496H182.496C182.496 55.628 184.96 53.1593 188.002 53.1523L188 52.1523ZM181.496 58.6719L180.496 58.6719C180.496 58.8022 180.5 58.9286 180.506 59.0496L181.505 59L182.504 58.9504C182.499 58.854 182.496 58.7616 182.496 58.6718L181.496 58.6719ZM181.505 59V58H135.854V59V60H181.505V59ZM135.854 59L136.852 59.0496C136.858 58.9286 136.862 58.8022 136.862 58.6719L135.862 58.6719L134.862 58.6718C134.862 58.7616 134.86 58.854 134.855 58.9504L135.854 59ZM135.862 58.6719H136.862C136.862 54.5195 133.496 51.1526 129.344 51.1523L129.344 52.1523L129.344 53.1523C132.391 53.1526 134.862 55.6238 134.862 58.6719H135.862ZM129.344 52.1523V51.1523C125.191 51.1523 121.824 54.5192 121.824 58.6719H122.824H123.824C123.824 55.6238 126.296 53.1523 129.344 53.1523V52.1523ZM122.824 58.6719L121.824 58.6719C121.824 58.8022 121.828 58.9286 121.834 59.0496L122.833 59L123.832 58.9504C123.827 58.854 123.824 58.7616 123.824 58.6718L122.824 58.6719ZM122.833 59V58H6.0293V59V60H122.833V59ZM6.0293 59L7.02807 59.0496C7.03407 58.9286 7.03808 58.8022 7.03809 58.6719L6.03809 58.6719L5.03809 58.6718C5.03808 58.7616 5.03531 58.854 5.03053 58.9504L6.0293 59ZM6.03809 58.6719H7.03809C7.03809 54.7052 3.96721 51.4576 0.0727395 51.1735L0 52.1709L-0.0727395 53.1683C2.78432 53.3766 5.03809 55.7613 5.03809 58.6719H6.03809ZM0 52.1709H1V7.01855H0H-1V52.1709H0ZM0 7.01855L0.0727506 8.0159C3.9667 7.73186 7.0378 4.48626 7.03809 0.519602L6.03809 0.519531L5.03809 0.51946C5.03788 3.42951 2.78445 5.81279 -0.0727506 6.0212L0 7.01855ZM6.03809 0.519531H7.03809C7.03809 0.31116 7.02742 0.110295 7.01253 -0.0785571L6.01562 0L5.01872 0.0785571C5.03083 0.232301 5.03809 0.37837 5.03809 0.519531H6.03809ZM6.01562 0V1H122.824V0V-1H6.01562V0ZM162.03 24.4697L162.737 23.7626C162.054 23.0792 160.946 23.0792 160.263 23.7626L160.97 24.4697L161.677 25.1768C161.579 25.2745 161.421 25.2745 161.323 25.1768L162.03 24.4697ZM160.97 24.4697L160.263 23.7626C159.579 24.446 159.579 25.554 160.263 26.2374L160.97 25.5303L161.677 24.8232C161.774 24.9208 161.774 25.0792 161.677 25.1768L160.97 24.4697ZM160.97 25.5303L160.263 26.2374L163.982 29.9571L164.689 29.25L165.397 28.5429L161.677 24.8232L160.97 25.5303ZM164.689 29.25V28.25H156.5V29.25V30.25H164.689V29.25ZM156.5 29.25V28.25C155.947 28.25 155.078 28.0698 154.398 27.58L153.813 28.3916L153.229 29.2032C154.322 29.9901 155.627 30.25 156.5 30.25V29.25ZM153.813 28.3916L154.398 27.5801C153.807 27.1545 153.25 26.4297 153.25 25H152.25H151.25C151.25 27.0815 152.123 28.4068 153.229 29.2031L153.813 28.3916ZM152.25 25H153.25C153.25 24.0335 152.466 23.25 151.5 23.25V24.25V25.25C151.362 25.25 151.25 25.1381 151.25 25H152.25ZM151.5 24.25V23.25C150.534 23.25 149.75 24.0335 149.75 25H150.75H151.75C151.75 25.1381 151.638 25.25 151.5 25.25V24.25ZM150.75 25H149.75C149.75 27.5702 150.86 29.3455 152.352 30.4199L152.937 29.6084L153.521 28.7969C152.544 28.0932 151.75 26.9183 151.75 25H150.75ZM152.937 29.6084L152.352 30.4199C153.755 31.4302 155.387 31.75 156.5 31.75V30.75V29.75C155.707 29.75 154.511 29.5096 153.521 28.7969L152.937 29.6084ZM156.5 30.75V31.75H164.689V30.75V29.75H156.5V30.75ZM164.689 30.75L163.982 30.0429L160.263 33.7626L160.97 34.4697L161.677 35.1768L165.397 31.4571L164.689 30.75ZM160.97 34.4697L160.263 33.7626C159.579 34.446 159.579 35.554 160.263 36.2374L160.97 35.5303L161.677 34.8232C161.774 34.9208 161.774 35.0792 161.677 35.1768L160.97 34.4697ZM160.97 35.5303L160.263 36.2374C160.946 36.9208 162.054 36.9208 162.737 36.2374L162.03 35.5303L161.323 34.8232C161.421 34.7255 161.579 34.7255 161.677 34.8232L160.97 35.5303ZM162.03 35.5303L162.737 36.2374L167.737 31.2374L167.03 30.5303L166.323 29.8232L161.323 34.8232L162.03 35.5303ZM167.03 30.5303L167.737 31.2374C168.421 30.554 168.421 29.446 167.737 28.7626L167.03 29.4697L166.323 30.1768C166.226 30.0792 166.226 29.9208 166.323 29.8232L167.03 30.5303ZM167.03 29.4697L167.737 28.7626L162.737 23.7626L162.03 24.4697L161.323 25.1768L166.323 30.1768L167.03 29.4697Z" fill="#FAF7EF" mask="url(#path-1-inside-1_146_6)"/>
<path d="M38.3182 29.2273C38.3182 22.9773 40.0455 20.5909 43 20.5909C45.7273 20.5909 47.1818 22.75 47.1818 26.1591C47.1818 26.5682 47.2045 27.0455 47.2955 27.4091V27.6364H43.8864C43.8182 27.4091 43.7727 27.0682 43.7727 26.6136V24.3636C43.7727 23.7273 43.5 23.3182 42.9545 23.3182C42.4091 23.3182 42.0682 23.7273 42.0682 24.4773V35.2273C42.0682 35.9773 42.4091 36.3864 42.9545 36.3864C43.5 36.3864 43.7727 35.9773 43.7727 35.3409V33.0909C43.7727 32.6364 43.8182 32.2955 43.8864 32.0682H47.2955V32.2955C47.1818 32.7045 47.1818 33.1364 47.1818 33.6591C47.1818 37.0682 45.7273 39.2273 43 39.2273C40.0455 39.2273 38.3182 36.8409 38.3182 30.5909V29.2273ZM47.7908 30.1364C47.7908 26.7273 49.0408 24.2273 51.7681 24.2273C54.4954 24.2273 55.7454 26.7273 55.7454 30.1364V33.3182C55.7454 36.7273 54.4954 39.2273 51.7681 39.2273C49.0408 39.2273 47.7908 36.7273 47.7908 33.3182V30.1364ZM50.9727 27.5455V35.9091C50.9727 36.6591 51.2681 37.0682 51.7681 37.0682C52.2681 37.0682 52.5636 36.6591 52.5636 35.9091V27.5455C52.5636 26.7955 52.2681 26.3864 51.7681 26.3864C51.2681 26.3864 50.9727 26.7955 50.9727 27.5455ZM56.6346 24.4545H58.68L58.9073 26.2727H59.1346C59.5437 24.9545 60.3391 24.3409 61.7255 24.3409C63.4755 24.3409 64.3619 25.7045 64.3619 27.8864V39H61.2937V27.7727C61.2937 27.0227 61.021 26.6136 60.521 26.6136C60.021 26.6136 59.7028 27.0227 59.7028 27.7727V39H56.6346V24.4545ZM64.6955 26.3864V24.5227C66.4455 24.3864 66.8319 23.3636 66.9682 21.5H69.1273V24.4545H70.7182V26.3864H69.1273V36.1591C69.1273 36.8409 69.3546 37.0682 69.9228 37.0682H70.4L70.5819 38.7727C70.2409 38.9545 69.5819 39.2273 68.6728 39.2273C67.3091 39.2273 66.0591 38.5455 66.0591 36.1591V26.3864H64.6955ZM70.9707 35.0227V28.4318C70.9707 25.9318 71.9707 24.2273 74.1298 24.2273C75.6071 24.2273 76.3343 25.25 76.5389 26.2727H76.7662L77.1071 24.4545H78.698V39H76.4252L76.198 37.4091H75.9707C75.7662 38.3182 75.1525 39.2273 73.7889 39.2273C71.7434 39.2273 70.9707 37.5227 70.9707 35.0227ZM74.0389 35.6818C74.0389 36.4318 74.3343 36.8409 74.8343 36.8409C75.3343 36.8409 75.6298 36.4318 75.6298 35.6818V27.7727C75.6298 27.0227 75.3343 26.6136 74.8343 26.6136C74.3343 26.6136 74.0389 27.0227 74.0389 27.7727V35.6818ZM79.5779 30.1364C79.5779 26.7273 80.9416 24.2273 83.6689 24.2273C86.0552 24.2273 87.1916 26.0455 87.1916 28.3182C87.1916 28.7727 87.2143 29.2045 87.3052 29.5682V29.7955H84.487C84.3734 29.4773 84.3507 29.0455 84.3507 28.5455V27.5455C84.3507 26.7955 84.0552 26.3864 83.5552 26.3864C83.0552 26.3864 82.7598 26.7955 82.7598 27.5455V35.9091C82.7598 36.6591 83.0552 37.0682 83.5552 37.0682C84.0552 37.0682 84.3507 36.6591 84.3507 35.9091V34.7955C84.3507 34.2727 84.3734 33.8636 84.487 33.5455H87.3052V33.7727C87.2143 34.0909 87.1916 34.5227 87.1916 35.0227C87.1916 37.2955 86.0552 39.2273 83.6689 39.2273C80.9416 39.2273 79.5779 36.7273 79.5779 33.3182V30.1364ZM87.4982 26.3864V24.5227C89.2482 24.3864 89.6346 23.3636 89.771 21.5H91.93V24.4545H93.521V26.3864H91.93V36.1591C91.93 36.8409 92.1573 37.0682 92.7255 37.0682H93.2028L93.3846 38.7727C93.0437 38.9545 92.3846 39.2273 91.4755 39.2273C90.1119 39.2273 88.8619 38.5455 88.8619 36.1591V26.3864H87.4982Z" fill="white"/>
<path d="M129.344 6.51953V52.1529" stroke="white" stroke-width="0.651906" stroke-dasharray="2 2"/>
</svg>
