<svg width="188" height="59" viewBox="0 0 188 59" fill="none" xmlns="http://www.w3.org/2000/svg">
<mask id="path-1-inside-1_146_6" fill="white">
<path d="M122.824 0C122.824 3.60016 125.744 6.51855 129.344 6.51855C132.944 6.5183 135.862 3.6 135.862 0H181.496C181.496 3.59511 184.407 6.5094 188 6.51758V52.1523C184.407 52.1605 181.496 55.0766 181.496 58.6719C181.496 58.7819 181.499 58.8913 181.505 59H135.854C135.859 58.8913 135.862 58.7819 135.862 58.6719C135.862 55.0717 132.944 52.1526 129.344 52.1523C125.743 52.1523 122.824 55.0715 122.824 58.6719C122.824 58.7819 122.828 58.8913 122.833 59H6.0293C6.03469 58.8913 6.03808 58.7819 6.03809 58.6719C6.03809 55.2333 3.37577 52.4171 0 52.1709V7.01855C3.37558 6.77233 6.03784 3.95788 6.03809 0.519531C6.03809 0.344765 6.02912 0.171298 6.01562 0H122.824ZM162.03 24.4697C161.737 24.1768 161.263 24.1768 160.97 24.4697C160.677 24.7626 160.677 25.2374 160.97 25.5303L164.689 29.25H156.5C155.787 29.25 154.7 29.0299 153.813 28.3916C152.965 27.7806 152.25 26.7556 152.25 25C152.25 24.5858 151.914 24.25 151.5 24.25C151.086 24.25 150.75 24.5858 150.75 25C150.75 27.2443 151.702 28.7193 152.937 29.6084C154.133 30.4699 155.547 30.75 156.5 30.75H164.689L160.97 34.4697C160.677 34.7626 160.677 35.2374 160.97 35.5303C161.263 35.8232 161.737 35.8232 162.03 35.5303L167.03 30.5303C167.323 30.2374 167.323 29.7626 167.03 29.4697L162.03 24.4697Z"/>
</mask>
<path d="M122.824 0L123.824 -7.10766e-05L123.824 -1H122.824V0ZM129.344 6.51855L129.344 7.51855L129.344 7.51855L129.344 6.51855ZM135.862 0V-1H134.862L134.862 -7.10762e-05L135.862 0ZM181.496 0L182.496 -7.10766e-05L182.496 -1H181.496V0ZM188 6.51758H189V5.51985L188.002 5.51758L188 6.51758ZM188 52.1523L188.002 53.1523L189 53.1501V52.1523H188ZM181.496 58.6719L180.496 58.6719L180.496 58.6719L181.496 58.6719ZM181.505 59V60H182.556L182.504 58.9504L181.505 59ZM135.854 59L134.855 58.9504L134.803 60H135.854V59ZM135.862 58.6719L136.862 58.6719V58.6719H135.862ZM129.344 52.1523L129.344 51.1523H129.344V52.1523ZM122.824 58.6719L121.824 58.6719L121.824 58.6719L122.824 58.6719ZM122.833 59V60H123.884L123.832 58.9504L122.833 59ZM6.0293 59L5.03053 58.9504L4.97842 60H6.0293V59ZM6.03809 58.6719L7.03809 58.6719V58.6719H6.03809ZM0 52.1709H-1V53.1006L-0.0727395 53.1682L0 52.1709ZM0 7.01855L-0.0727506 6.0212L-1 6.08884V7.01855H0ZM6.03809 0.519531L7.03809 0.519602V0.519531H6.03809ZM6.01562 0V-1H4.93372L5.01872 0.0785571L6.01562 0ZM162.03 24.4697L161.323 25.1768L161.323 25.1768L162.03 24.4697ZM160.97 24.4697L160.263 23.7626L160.263 23.7626L160.97 24.4697ZM160.97 25.5303L160.263 26.2374L160.263 26.2374L160.97 25.5303ZM164.689 29.25V30.25H167.104L165.397 28.5429L164.689 29.25ZM153.813 28.3916L153.229 29.2031L153.229 29.2032L153.813 28.3916ZM152.937 29.6084L152.352 30.4199L152.352 30.4199L152.937 29.6084ZM164.689 30.75L165.397 31.4571L167.104 29.75H164.689V30.75ZM160.97 34.4697L161.677 35.1768L161.677 35.1768L160.97 34.4697ZM160.97 35.5303L161.677 34.8232L161.677 34.8232L160.97 35.5303ZM162.03 35.5303L161.323 34.8232L161.323 34.8232L162.03 35.5303ZM167.03 30.5303L167.737 31.2374L167.737 31.2374L167.03 30.5303ZM167.03 29.4697L167.737 28.7626L167.03 29.4697ZM122.824 0L121.824 7.10766e-05C121.825 4.15258 125.191 7.51855 129.344 7.51855V6.51855V5.51855C126.296 5.51855 123.824 3.04773 123.824 -7.10766e-05L122.824 0ZM129.344 6.51855L129.344 7.51855C133.496 7.51826 136.862 4.1523 136.862 7.10762e-05L135.862 0L134.862 -7.10762e-05C134.862 3.0477 132.391 5.51834 129.344 5.51855L129.344 6.51855ZM135.862 0V1H181.496V0V-1H135.862V0ZM181.496 0L180.496 7.10766e-05C180.496 4.14687 183.853 7.50815 187.998 7.51758L188 6.51758L188.002 5.51758C184.96 5.51066 182.496 3.04335 182.496 -7.10766e-05L181.496 0ZM188 6.51758H187V52.1523H188H189V6.51758H188ZM188 52.1523L187.998 51.1523C183.853 51.1618 180.496 54.5251 180.496 58.6719H181.496H182.496C182.496 55.628 184.96 53.1593 188.002 53.1523L188 52.1523ZM181.496 58.6719L180.496 58.6719C180.496 58.8022 180.5 58.9286 180.506 59.0496L181.505 59L182.504 58.9504C182.499 58.854 182.496 58.7616 182.496 58.6718L181.496 58.6719ZM181.505 59V58H135.854V59V60H181.505V59ZM135.854 59L136.852 59.0496C136.858 58.9286 136.862 58.8022 136.862 58.6719L135.862 58.6719L134.862 58.6718C134.862 58.7616 134.86 58.854 134.855 58.9504L135.854 59ZM135.862 58.6719H136.862C136.862 54.5195 133.496 51.1526 129.344 51.1523L129.344 52.1523L129.344 53.1523C132.391 53.1526 134.862 55.6238 134.862 58.6719H135.862ZM129.344 52.1523V51.1523C125.191 51.1523 121.824 54.5192 121.824 58.6719H122.824H123.824C123.824 55.6238 126.296 53.1523 129.344 53.1523V52.1523ZM122.824 58.6719L121.824 58.6719C121.824 58.8022 121.828 58.9286 121.834 59.0496L122.833 59L123.832 58.9504C123.827 58.854 123.824 58.7616 123.824 58.6718L122.824 58.6719ZM122.833 59V58H6.0293V59V60H122.833V59ZM6.0293 59L7.02807 59.0496C7.03407 58.9286 7.03808 58.8022 7.03809 58.6719L6.03809 58.6719L5.03809 58.6718C5.03808 58.7616 5.03531 58.854 5.03053 58.9504L6.0293 59ZM6.03809 58.6719H7.03809C7.03809 54.7052 3.96721 51.4576 0.0727395 51.1735L0 52.1709L-0.0727395 53.1682C2.78432 53.3766 5.03809 55.7613 5.03809 58.6719H6.03809ZM0 52.1709H1V7.01855H0H-1V52.1709H0ZM0 7.01855L0.0727506 8.0159C3.9667 7.73187 7.0378 4.48626 7.03809 0.519602L6.03809 0.519531L5.03809 0.51946C5.03788 3.42951 2.78445 5.81279 -0.0727506 6.0212L0 7.01855ZM6.03809 0.519531H7.03809C7.03809 0.31116 7.02742 0.110295 7.01253 -0.0785571L6.01562 0L5.01872 0.0785571C5.03083 0.232301 5.03809 0.37837 5.03809 0.519531H6.03809ZM6.01562 0V1H122.824V0V-1H6.01562V0ZM162.03 24.4697L162.737 23.7626C162.054 23.0792 160.946 23.0792 160.263 23.7626L160.97 24.4697L161.677 25.1768C161.579 25.2745 161.421 25.2745 161.323 25.1768L162.03 24.4697ZM160.97 24.4697L160.263 23.7626C159.579 24.446 159.579 25.554 160.263 26.2374L160.97 25.5303L161.677 24.8232C161.774 24.9208 161.774 25.0792 161.677 25.1768L160.97 24.4697ZM160.97 25.5303L160.263 26.2374L163.982 29.9571L164.689 29.25L165.397 28.5429L161.677 24.8232L160.97 25.5303ZM164.689 29.25V28.25H156.5V29.25V30.25H164.689V29.25ZM156.5 29.25V28.25C155.947 28.25 155.078 28.0698 154.398 27.58L153.813 28.3916L153.229 29.2032C154.322 29.9901 155.627 30.25 156.5 30.25V29.25ZM153.813 28.3916L154.398 27.5801C153.807 27.1545 153.25 26.4297 153.25 25H152.25H151.25C151.25 27.0815 152.123 28.4068 153.229 29.2031L153.813 28.3916ZM152.25 25H153.25C153.25 24.0335 152.466 23.25 151.5 23.25V24.25V25.25C151.362 25.25 151.25 25.1381 151.25 25H152.25ZM151.5 24.25V23.25C150.534 23.25 149.75 24.0335 149.75 25H150.75H151.75C151.75 25.1381 151.638 25.25 151.5 25.25V24.25ZM150.75 25H149.75C149.75 27.5702 150.86 29.3455 152.352 30.4199L152.937 29.6084L153.521 28.7969C152.544 28.0932 151.75 26.9183 151.75 25H150.75ZM152.937 29.6084L152.352 30.4199C153.755 31.4302 155.387 31.75 156.5 31.75V30.75V29.75C155.707 29.75 154.511 29.5096 153.521 28.7969L152.937 29.6084ZM156.5 30.75V31.75H164.689V30.75V29.75H156.5V30.75ZM164.689 30.75L163.982 30.0429L160.263 33.7626L160.97 34.4697L161.677 35.1768L165.397 31.4571L164.689 30.75ZM160.97 34.4697L160.263 33.7626C159.579 34.446 159.579 35.554 160.263 36.2374L160.97 35.5303L161.677 34.8232C161.774 34.9208 161.774 35.0792 161.677 35.1768L160.97 34.4697ZM160.97 35.5303L160.263 36.2374C160.946 36.9208 162.054 36.9208 162.737 36.2374L162.03 35.5303L161.323 34.8232C161.421 34.7255 161.579 34.7255 161.677 34.8232L160.97 35.5303ZM162.03 35.5303L162.737 36.2374L167.737 31.2374L167.03 30.5303L166.323 29.8232L161.323 34.8232L162.03 35.5303ZM167.03 30.5303L167.737 31.2374C168.421 30.554 168.421 29.446 167.737 28.7626L167.03 29.4697L166.323 30.1768C166.226 30.0792 166.226 29.9208 166.323 29.8232L167.03 30.5303ZM167.03 29.4697L167.737 28.7626L162.737 23.7626L162.03 24.4697L161.323 25.1768L166.323 30.1768L167.03 29.4697Z" fill="#FAF7EF" mask="url(#path-1-inside-1_146_6)"/>
<path d="M22.4545 18.8182H28.5909V21.7727H25.8636V26.3182H28.25V29.2727H25.8636V34.0455H28.5909V37H22.4545V18.8182ZM33.974 22.4545H36.8149V22.6818L35.5649 29.6136V29.7273L36.8149 36.7727V37H33.974L33.0194 31.6136H32.7922L31.8376 37H28.9967V36.7727L30.2467 29.7273V29.6136L28.9967 22.6818V22.4545H31.8376L32.7922 27.7273H33.0194L33.974 22.4545ZM37.5096 22.4545H39.7823L40.0096 24.0455H40.2369C40.4414 23.1364 41.055 22.2273 42.4187 22.2273C44.4641 22.2273 45.2369 23.9318 45.2369 26.4318V33.25C45.2369 35.9773 44.2141 37.2273 42.6232 37.2273C41.7141 37.2273 41.1005 36.8182 40.805 35.9773H40.5778V40.4091H37.5096V22.4545ZM40.5778 33.6818C40.5778 34.4318 40.8732 34.8409 41.3732 34.8409C41.8732 34.8409 42.1687 34.4318 42.1687 33.6818V25.7727C42.1687 25.0227 41.8732 24.6136 41.3732 24.6136C40.8732 24.6136 40.5778 25.0227 40.5778 25.7727V33.6818ZM46.2987 18.8182H49.3668V37H46.2987V18.8182ZM50.2479 28.1364C50.2479 24.7273 51.4979 22.2273 54.2251 22.2273C56.9524 22.2273 58.2024 24.7273 58.2024 28.1364V31.3182C58.2024 34.7273 56.9524 37.2273 54.2251 37.2273C51.4979 37.2273 50.2479 34.7273 50.2479 31.3182V28.1364ZM53.4297 25.5455V33.9091C53.4297 34.6591 53.7251 35.0682 54.2251 35.0682C54.7251 35.0682 55.0206 34.6591 55.0206 33.9091V25.5455C55.0206 24.7955 54.7251 24.3864 54.2251 24.3864C53.7251 24.3864 53.4297 24.7955 53.4297 25.5455ZM59.0916 22.4545H61.2507L61.478 24.3864H61.7053C61.8416 23.2273 62.2962 22.4091 63.5462 22.4091H64.2053V25.25H63.6371C62.6371 25.25 62.1598 25.7045 62.1598 27.0227V37H59.0916V22.4545ZM64.286 31.5455V28.1364C64.286 24.7273 65.536 22.2273 68.2632 22.2273C70.8314 22.2273 71.8314 24.2727 71.8314 26.6591V29.8409H67.4678V33.9091C67.4678 34.6591 67.7632 35.0682 68.286 35.0682C68.786 35.0682 69.0587 34.6591 69.0587 33.9545V32.4545C69.0587 31.9091 69.1041 31.4773 69.195 31.2045H71.8769V31.4318C71.8314 31.7045 71.786 31.9773 71.786 32.9091C71.786 35.5227 70.5814 37.2273 68.195 37.2273C65.7632 37.2273 64.286 35.0682 64.286 31.5455ZM67.4678 27.9091H69.0587V25.5455C69.0587 24.7955 68.7632 24.3864 68.2632 24.3864C67.7632 24.3864 67.4678 24.7955 67.4678 25.5455V27.9091ZM75.8237 18.8182H79.5737L81.051 28.5909H81.2782L82.7555 18.8182H86.5055V37H83.551L83.7782 28.5909H83.551L82.301 37H80.0282L78.7782 28.5909H78.551L78.7782 37H75.8237V18.8182ZM87.284 28.1364C87.284 24.7273 88.534 22.2273 91.2613 22.2273C93.9885 22.2273 95.2385 24.7273 95.2385 28.1364V31.3182C95.2385 34.7273 93.9885 37.2273 91.2613 37.2273C88.534 37.2273 87.284 34.7273 87.284 31.3182V28.1364ZM90.4658 25.5455V33.9091C90.4658 34.6591 90.7613 35.0682 91.2613 35.0682C91.7613 35.0682 92.0567 34.6591 92.0567 33.9091V25.5455C92.0567 24.7955 91.7613 24.3864 91.2613 24.3864C90.7613 24.3864 90.4658 24.7955 90.4658 25.5455ZM96.1278 22.4545H98.2868L98.5141 24.3864H98.7414C98.8778 23.2273 99.3323 22.4091 100.582 22.4091H101.241V25.25H100.673C99.6732 25.25 99.1959 25.7045 99.1959 27.0227V37H96.1278V22.4545ZM101.322 31.5455V28.1364C101.322 24.7273 102.572 22.2273 105.299 22.2273C107.868 22.2273 108.868 24.2727 108.868 26.6591V29.8409H104.504V33.9091C104.504 34.6591 104.799 35.0682 105.322 35.0682C105.822 35.0682 106.095 34.6591 106.095 33.9545V32.4545C106.095 31.9091 106.14 31.4773 106.231 31.2045H108.913V31.4318C108.868 31.7045 108.822 31.9773 108.822 32.9091C108.822 35.5227 107.618 37.2273 105.231 37.2273C102.799 37.2273 101.322 35.0682 101.322 31.5455ZM104.504 27.9091H106.095V25.5455C106.095 24.7955 105.799 24.3864 105.299 24.3864C104.799 24.3864 104.504 24.7955 104.504 25.5455V27.9091Z" fill="white"/>
<path d="M129.344 6.51953V52.1529" stroke="white" stroke-width="0.651906" stroke-dasharray="2 2"/>
</svg>
