<svg width="743" height="160" viewBox="0 0 743 160" fill="none" xmlns="http://www.w3.org/2000/svg">
<path d="M117.013 19.6992L112.298 147H65.5787L61.7211 73.7056V19.6992H117.013Z" fill="#FAF7EF" stroke="black" stroke-width="4"/>
<path d="M2.99987 19.6992L7.71471 147H54.4345L58.2921 73.7056V19.6992H2.99987Z" fill="#FAF7EF" stroke="black" stroke-width="4"/>
<path d="M740 15.248L735.12 147H686.767L682.774 71.1428V15.248H740Z" fill="#FAF7EF" stroke="black" stroke-width="4"/>
<path d="M622 15.248L626.88 147H675.233L679.225 71.1428V15.248H622Z" fill="#FAF7EF" stroke="black" stroke-width="4"/>
<path d="M156.036 76.4545C156.036 36.4545 167.818 21.1818 186.291 21.1818C203.745 21.1818 212.764 35.7273 212.764 57.5455C212.764 60.1636 212.909 63.2182 213.491 65.5455V67H191.673C191.236 65.5455 190.945 63.3636 190.945 60.4545V45.3273C190.945 41.2545 189.2 38.6364 185.709 38.6364C182.218 38.6364 180.036 41.2545 180.036 46.0545V114.855C180.036 119.655 182.218 122.273 185.709 122.273C189.2 122.273 190.945 119.655 190.945 115.582V91.7273H212.036V139H201.855L198.218 124.018H196.764C195.745 132.891 191.236 140.455 180.327 140.455C169.273 140.455 156.036 130.273 156.036 94.6364V76.4545ZM217.847 22.6364H239.665V139H217.847V22.6364ZM245.503 22.6364H267.321V120.091H285.503V139H245.503V22.6364ZM284.318 76.4545C284.318 36.4545 296.099 21.1818 314.572 21.1818C332.027 21.1818 341.045 35.7273 341.045 57.5455C341.045 60.1636 341.19 63.2182 341.772 65.5455V67H319.954C319.518 65.5455 319.227 63.3636 319.227 60.4545V45.3273C319.227 41.2545 317.481 38.6364 313.99 38.6364C310.499 38.6364 308.318 41.2545 308.318 46.0545V114.855C308.318 119.655 310.499 122.273 313.99 122.273C317.481 122.273 319.227 119.655 319.227 115.582V91.7273H340.318V139H330.136L326.499 124.018H325.045C324.027 132.891 319.518 140.455 308.609 140.455C297.554 140.455 284.318 130.273 284.318 94.6364V76.4545ZM354.855 22.6364H386.855L397.764 137.545V139H377.401L374.928 111.364H366.782L364.31 139H343.946V137.545L354.855 22.6364ZM366.928 92.4545H374.782L371.582 52.4545H370.128L366.928 92.4545ZM401.44 22.6364H425.44L434.895 85.1818H436.349L445.804 22.6364H469.804V139H450.895L452.349 85.1818H450.895L442.895 139H428.349L420.349 85.1818H418.895L420.349 139H401.44V22.6364ZM484.386 22.6364H516.386L527.295 137.545V139H506.932L504.459 111.364H496.314L493.841 139H473.477V137.545L484.386 22.6364ZM496.459 92.4545H504.314L501.114 52.4545H499.659L496.459 92.4545ZM562.972 22.6364H583.335V24.0909L575.335 79.3636V80.8182L584.062 137.545V139H562.972L557.153 99.4364H555.699L549.881 139H528.79V137.545L537.517 80.8182V79.3636L529.517 24.0909V22.6364H549.881L555.699 61.4727H557.153L562.972 22.6364Z" fill="white"/>
</svg>
