<svg width="23" height="13" viewBox="0 0 23 13" fill="none" xmlns="http://www.w3.org/2000/svg">
<path d="M15.7158 11.9878L16.0175 11.686L12.6979 6.25389L16.0175 0.821802L15.7158 0.52002L10.5854 5.65032V6.55567L15.7158 11.9878Z" fill="#FAF7EF"/>
<path d="M18.7333 11.9878L19.0351 11.686L15.7155 6.25389L19.0351 0.821802L18.7333 0.52002L13.603 5.65032V6.55567L18.7333 11.9878Z" fill="#FAF7EF"/>
<path d="M12.9995 6.1143L13.6031 5.65058L13.6031 6.55591L12.9995 6.1143Z" fill="#FAF7EF"/>
<path d="M21.7509 11.9878L22.0527 11.686L18.7331 6.25389L22.0527 0.821802L21.7509 0.52002L16.6206 5.65032V6.55567L21.7509 11.9878Z" fill="#FAF7EF"/>
<path d="M16.0176 6.1143L16.6211 5.65058L16.6211 6.55591L16.0176 6.1143Z" fill="#FAF7EF"/>
<path d="M3.8252 8.32007C4.06348 6.74683 4.0859 5.71131 3.8252 4.16007C7.27623 5.31084 9.21256 5.58072 12.6652 5.76007L12.6652 6.40007C9.14695 6.7048 7.2011 7.04922 3.8252 8.32007Z" fill="#FAF7EF"/>
<path d="M0.705566 0C2.08215 0.350413 2.98823 0.383395 4.34557 0C3.33864 5.07506 3.10249 7.9226 2.94557 13H2.38557C2.11893 7.82611 1.81756 4.96456 0.705566 0Z" fill="#FAF7EF"/>
</svg>
