<svg width="282" height="60" viewBox="0 0 282 60" fill="none" xmlns="http://www.w3.org/2000/svg">
<path d="M216.825 0C216.825 3.60038 219.744 6.51953 223.345 6.51953C226.945 6.51933 229.863 3.60025 229.863 0H275.497C275.497 3.59501 278.407 6.50988 282 6.51855V52.0205C281.835 52.008 281.668 52 281.5 52C277.91 52.0001 275 54.9102 275 58.5C275 58.6683 275.009 58.8349 275.021 59H229.979C229.991 58.8349 230 58.6683 230 58.5C230 54.9101 227.09 52 223.5 52C219.91 52.0001 217 54.9102 217 58.5C217 58.6683 217.009 58.8349 217.021 59H5.97852C5.99108 58.8349 6 58.6683 6 58.5C6 55.0784 3.35622 52.2758 0 52.0205V6.50977C3.44406 6.33473 6.18262 3.48757 6.18262 0H216.825Z" fill="#F0EEE6"/>
<rect x="240.718" y="25.0193" width="23.9243" height="2" fill="black"/>
<rect x="240.718" y="29.6269" width="23.9243" height="2" fill="black"/>
<rect x="240.718" y="34.2345" width="23.9243" height="2" fill="black"/>
<path d="M87.8083 15.8801H93.2843L95.4415 30.1509H95.7734L97.9306 15.8801H103.407V42.4305H99.0922L99.4241 30.1509H99.0922L97.2669 42.4305H93.9481L92.1227 30.1509H91.7908L92.1227 42.4305H87.8083V15.8801ZM104.743 15.8801H113.703V20.1946H109.721V26.8322H113.205V31.1466H109.721V38.116H113.703V42.4305H104.743V15.8801ZM114.761 15.8801H119.075L121.896 29.1553H122.228L121.73 15.8801H126.376V42.4305H122.062L119.241 29.1553H118.909L119.407 42.4305H114.761V15.8801ZM135.003 15.8801H139.981V35.7929C139.981 40.1073 137.658 42.7624 133.842 42.7624C130.025 42.7624 127.702 40.1073 127.702 35.7929V15.8801H132.68V37.0872C132.68 38.1824 133.045 38.7798 133.842 38.7798C134.638 38.7798 135.003 38.1824 135.003 37.0872V15.8801Z" fill="black"/>
<path d="M223.345 6.51907V52.1525" stroke="black" stroke-width="0.651906" stroke-dasharray="2 2"/>
<path d="M6 59L274 59" stroke="black" stroke-width="0.651906" stroke-dasharray="2 2"/>
</svg>
