<svg width="39" height="31" viewBox="0 0 39 31" fill="none" xmlns="http://www.w3.org/2000/svg">
<path d="M5.46 30.136C5.46 26.3093 5.32933 22.9027 5.068 19.916C4.80667 16.9293 4.47067 14.316 4.06 12.076C3.64933 9.836 3.22933 7.94133 2.8 6.392C3.752 6.616 4.732 6.728 5.74 6.728C6.748 6.728 7.784 6.616 8.848 6.392C8.41867 7.94133 7.99867 9.836 7.588 12.076C7.17733 14.2973 6.84133 16.9013 6.58 19.888C6.31867 22.8747 6.188 26.2907 6.188 30.136H5.46ZM26.236 26.692C24.2387 24.5827 22.568 22.772 21.224 21.26C19.8987 19.7293 18.76 18.4973 17.808 17.564C16.2587 17.7693 14.9053 17.9933 13.748 18.236C12.5907 18.4787 11.5267 18.7587 10.556 19.076C9.58533 19.3747 8.57733 19.7387 7.532 20.168C7.62533 19.6827 7.69067 19.1693 7.728 18.628C7.784 18.0867 7.812 17.5267 7.812 16.948C7.812 16.4067 7.784 15.856 7.728 15.296C7.69067 14.7173 7.62533 14.148 7.532 13.588C8.82 14.1107 10.2667 14.624 11.872 15.128C13.4773 15.632 15.4373 16.0147 17.752 16.276C19.0027 15.0067 20.2813 13.644 21.588 12.188C22.8947 10.7133 24.444 9.024 26.236 7.12L26.684 7.456C25.4893 9.39733 24.4533 11.18 23.576 12.804C22.6987 14.428 21.98 15.7907 21.42 16.892C21.9053 17.8253 22.5867 19.1227 23.464 20.784C24.36 22.4453 25.4333 24.3027 26.684 26.356L26.236 26.692ZM30.912 26.692C28.6907 24.3027 26.8613 22.296 25.424 20.672C24.0053 19.048 22.8013 17.788 21.812 16.892C22.7267 15.996 23.632 15.0627 24.528 14.092C25.424 13.1027 26.3853 12.0387 27.412 10.9C28.4573 9.74267 29.624 8.48267 30.912 7.12L31.388 7.456L26.096 16.892C26.5813 17.8253 27.2627 19.1227 28.14 20.784C29.036 22.4453 30.1187 24.3027 31.388 26.356L30.912 26.692ZM35.588 26.692C33.3667 24.3027 31.5373 22.296 30.1 20.672C28.6813 19.048 27.4773 17.788 26.488 16.892C27.4027 15.996 28.308 15.0627 29.204 14.092C30.1 13.1027 31.0613 12.0387 32.088 10.9C33.1333 9.74267 34.3 8.48267 35.588 7.12L36.064 7.456L30.772 16.892C31.2573 17.8253 31.9387 19.1227 32.816 20.784C33.712 22.4453 34.7947 24.3027 36.064 26.356L35.588 26.692Z" fill="#FAF7EF"/>
<path d="M2 6C4.64728 6.67387 6.38973 6.7373 9 6C7.06361 15.7597 6.60948 21.2358 6.30769 31H5.23077C4.71801 21.0502 4.13844 15.5472 2 6Z" fill="#FAF7EF"/>
<path d="M11 6C13.6473 6.67387 15.3897 6.7373 18 6C16.0636 15.7597 15.6095 21.2358 15.3077 31H14.2308C13.718 21.0502 13.1384 15.5472 11 6Z" fill="#FAF7EF"/>
<path d="M6.5 14H8.5L8 20L6 21L6.5 20V14Z" fill="#FAF7EF"/>
</svg>
