<svg width="145" height="41" viewBox="0 0 145 41" fill="none" xmlns="http://www.w3.org/2000/svg">
<path d="M5.46 35.136C5.46 31.3093 5.32933 27.9027 5.068 24.916C4.80667 21.9293 4.47067 19.316 4.06 17.076C3.64933 14.836 3.22933 12.9413 2.8 11.392C3.752 11.616 4.732 11.728 5.74 11.728C6.748 11.728 7.784 11.616 8.848 11.392C8.41867 12.9413 7.99867 14.836 7.588 17.076C7.17733 19.2973 6.84133 21.9013 6.58 24.888C6.31867 27.8747 6.188 31.2907 6.188 35.136H5.46ZM26.236 31.692C24.2387 29.5827 22.568 27.772 21.224 26.26C19.8987 24.7293 18.76 23.4973 17.808 22.564C16.2587 22.7693 14.9053 22.9933 13.748 23.236C12.5907 23.4787 11.5267 23.7587 10.556 24.076C9.58533 24.3747 8.57733 24.7387 7.532 25.168C7.62533 24.6827 7.69067 24.1693 7.728 23.628C7.784 23.0867 7.812 22.5267 7.812 21.948C7.812 21.4067 7.784 20.856 7.728 20.296C7.69067 19.7173 7.62533 19.148 7.532 18.588C8.82 19.1107 10.2667 19.624 11.872 20.128C13.4773 20.632 15.4373 21.0147 17.752 21.276C19.0027 20.0067 20.2813 18.644 21.588 17.188C22.8947 15.7133 24.444 14.024 26.236 12.12L26.684 12.456C25.4893 14.3973 24.4533 16.18 23.576 17.804C22.6987 19.428 21.98 20.7907 21.42 21.892C21.9053 22.8253 22.5867 24.1227 23.464 25.784C24.36 27.4453 25.4333 29.3027 26.684 31.356L26.236 31.692ZM30.912 31.692C28.6907 29.3027 26.8613 27.296 25.424 25.672C24.0053 24.048 22.8013 22.788 21.812 21.892C22.7267 20.996 23.632 20.0627 24.528 19.092C25.424 18.1027 26.3853 17.0387 27.412 15.9C28.4573 14.7427 29.624 13.4827 30.912 12.12L31.388 12.456L26.096 21.892C26.5813 22.8253 27.2627 24.1227 28.14 25.784C29.036 27.4453 30.1187 29.3027 31.388 31.356L30.912 31.692ZM35.588 31.692C33.3667 29.3027 31.5373 27.296 30.1 25.672C28.6813 24.048 27.4773 22.788 26.488 21.892C27.4027 20.996 28.308 20.0627 29.204 19.092C30.1 18.1027 31.0613 17.0387 32.088 15.9C33.1333 14.7427 34.3 13.4827 35.588 12.12L36.064 12.456L30.772 21.892C31.2573 22.8253 31.9387 24.1227 32.816 25.784C33.712 27.4453 34.7947 29.3027 36.064 31.356L35.588 31.692Z" fill="#FAF7EF"/>
<path d="M2 11C4.64728 11.6739 6.38973 11.7373 9 11C7.06361 20.7597 6.60948 26.2358 6.30769 36H5.23077C4.71801 26.0502 4.13844 20.5472 2 11Z" fill="#FAF7EF"/>
<path d="M11 11C13.6473 11.6739 15.3897 11.7373 18 11C16.0636 20.7597 15.6095 26.2358 15.3077 36H14.2308C13.718 26.0502 13.1384 20.5472 11 11Z" fill="#FAF7EF"/>
<path d="M39.5091 19.3636C39.5091 9.36364 42.4545 5.54545 47.0727 5.54545C51.4364 5.54545 53.6909 9.18182 53.6909 14.6364C53.6909 15.2909 53.7273 16.0545 53.8727 16.6364V17H48.4182C48.3091 16.6364 48.2364 16.0909 48.2364 15.3636V11.5818C48.2364 10.5636 47.8 9.90909 46.9273 9.90909C46.0545 9.90909 45.5091 10.5636 45.5091 11.7636V28.9636C45.5091 30.1636 46.0545 30.8182 46.9273 30.8182C47.8 30.8182 48.2364 30.1636 48.2364 29.1455V23.1818H53.5091V35H50.9636L50.0545 31.2545H49.6909C49.4364 33.4727 48.3091 35.3636 45.5818 35.3636C42.8182 35.3636 39.5091 32.8182 39.5091 23.9091V19.3636ZM54.9616 5.90909H60.2344V10.0909H54.9616V5.90909ZM55.1435 11.7273H60.0526V35H55.1435V11.7273ZM61.8622 5.90909H66.7713V35H61.8622V5.90909ZM80.5446 11.7273V33.9091C80.5446 37.9818 78.4355 40.8182 74.6173 40.8182C70.5446 40.8182 68.7264 37.9818 68.7264 34.7818C68.7264 34.3818 68.6901 33.9455 68.581 33.5455V33.1818H72.9082C73.0537 33.5818 73.0901 34.1273 73.0901 34.9273V35.8C73.0901 36.8909 73.5628 37.5455 74.3991 37.5455C75.2355 37.5455 75.6355 36.8909 75.6355 35.7636V29.9091H75.2719C74.7991 31.2545 73.8173 31.9091 72.3628 31.9091C69.8173 31.9091 68.181 29.9091 68.181 25.5455V18.0909C68.181 14.0909 69.781 11.3636 73.2355 11.3636C75.5991 11.3636 76.7628 13 77.0901 14.6364H77.4537L77.9991 11.7273H80.5446ZM73.0901 26.2364C73.0901 27.4364 73.5628 28.0909 74.3628 28.0909C75.1628 28.0909 75.6355 27.4364 75.6355 26.2364V17.0364C75.6355 15.8364 75.1628 15.1818 74.3628 15.1818C73.5628 15.1818 73.0901 15.8364 73.0901 17.0364V26.2364ZM82.2609 28.6364V18.0909C82.2609 14.0909 83.8609 11.3636 87.3155 11.3636C89.6791 11.3636 90.8428 13 91.17 14.6364H91.5337L92.0791 11.7273H94.6246V35H90.9882L90.6246 32.4545H90.2609C89.9337 33.9091 88.9518 35.3636 86.77 35.3636C83.4973 35.3636 82.2609 32.6364 82.2609 28.6364ZM87.17 29.6909C87.17 30.8909 87.6428 31.5455 88.4428 31.5455C89.2428 31.5455 89.7155 30.8909 89.7155 29.6909V17.0364C89.7155 15.8364 89.2428 15.1818 88.4428 15.1818C87.6428 15.1818 87.17 15.8364 87.17 17.0364V29.6909ZM96.4325 11.7273H99.5234L99.8871 14.6364H100.251C100.833 12.6727 101.96 11.5455 104.142 11.5455C106.433 11.5455 107.56 13 107.742 14.4545H108.105C108.687 12.4545 109.923 11.5455 112.069 11.5455C115.233 11.5455 116.251 13.9091 116.251 17.7273V35H111.342V17.0364C111.342 15.8364 110.869 15.1818 110.069 15.1818C109.269 15.1818 108.796 15.8364 108.796 17.0364V35H103.887V17.0364C103.887 15.8364 103.414 15.1818 102.614 15.1818C101.814 15.1818 101.342 15.8364 101.342 17.0364V35H96.4325V11.7273ZM117.847 28.6364V18.0909C117.847 14.0909 119.447 11.3636 122.901 11.3636C125.265 11.3636 126.429 13 126.756 14.6364H127.12L127.665 11.7273H130.211V35H126.574L126.211 32.4545H125.847C125.52 33.9091 124.538 35.3636 122.356 35.3636C119.083 35.3636 117.847 32.6364 117.847 28.6364ZM122.756 29.6909C122.756 30.8909 123.229 31.5455 124.029 31.5455C124.829 31.5455 125.301 30.8909 125.301 29.6909V17.0364C125.301 15.8364 124.829 15.1818 124.029 15.1818C123.229 15.1818 122.756 15.8364 122.756 17.0364V29.6909ZM139.291 11.7273H143.837V12.0909L141.837 23.1818V23.3636L143.837 34.6364V35H139.291L137.764 26.3818H137.4L135.873 35H131.328V34.6364L133.328 23.3636V23.1818L131.328 12.0909V11.7273H135.873L137.4 20.1636H137.764L139.291 11.7273Z" fill="white"/>
<path d="M6 19H8V25L5.5 26L6 25V19Z" fill="#FAF7EF"/>
</svg>
