<svg width="146" height="50" viewBox="0 0 146 50" fill="none" xmlns="http://www.w3.org/2000/svg">
<path d="M5.46 35.136C5.46 31.3093 5.32933 27.9027 5.068 24.916C4.80667 21.9293 4.47067 19.316 4.06 17.076C3.64933 14.836 3.22933 12.9413 2.8 11.392C3.752 11.616 4.732 11.728 5.74 11.728C6.748 11.728 7.784 11.616 8.848 11.392C8.41867 12.9413 7.99867 14.836 7.588 17.076C7.17733 19.2973 6.84133 21.9013 6.58 24.888C6.31867 27.8747 6.188 31.2907 6.188 35.136H5.46ZM26.236 31.692C24.2387 29.5827 22.568 27.772 21.224 26.26C19.8987 24.7293 18.76 23.4973 17.808 22.564C16.2587 22.7693 14.9053 22.9933 13.748 23.236C12.5907 23.4787 11.5267 23.7587 10.556 24.076C9.58533 24.3747 8.57733 24.7387 7.532 25.168C7.62533 24.6827 7.69067 24.1693 7.728 23.628C7.784 23.0867 7.812 22.5267 7.812 21.948C7.812 21.4067 7.784 20.856 7.728 20.296C7.69067 19.7173 7.62533 19.148 7.532 18.588C8.82 19.1107 10.2667 19.624 11.872 20.128C13.4773 20.632 15.4373 21.0147 17.752 21.276C19.0027 20.0067 20.2813 18.644 21.588 17.188C22.8947 15.7133 24.444 14.024 26.236 12.12L26.684 12.456C25.4893 14.3973 24.4533 16.18 23.576 17.804C22.6987 19.428 21.98 20.7907 21.42 21.892C21.9053 22.8253 22.5867 24.1227 23.464 25.784C24.36 27.4453 25.4333 29.3027 26.684 31.356L26.236 31.692ZM30.912 31.692C28.6907 29.3027 26.8613 27.296 25.424 25.672C24.0053 24.048 22.8013 22.788 21.812 21.892C22.7267 20.996 23.632 20.0627 24.528 19.092C25.424 18.1027 26.3853 17.0387 27.412 15.9C28.4573 14.7427 29.624 13.4827 30.912 12.12L31.388 12.456L26.096 21.892C26.5813 22.8253 27.2627 24.1227 28.14 25.784C29.036 27.4453 30.1187 29.3027 31.388 31.356L30.912 31.692ZM35.588 31.692C33.3667 29.3027 31.5373 27.296 30.1 25.672C28.6813 24.048 27.4773 22.788 26.488 21.892C27.4027 20.996 28.308 20.0627 29.204 19.092C30.1 18.1027 31.0613 17.0387 32.088 15.9C33.1333 14.7427 34.3 13.4827 35.588 12.12L36.064 12.456L30.772 21.892C31.2573 22.8253 31.9387 24.1227 32.816 25.784C33.712 27.4453 34.7947 29.3027 36.064 31.356L35.588 31.692Z" fill="#FAF7EF"/>
<path d="M2 11C4.64728 11.6739 6.38973 11.7373 9 11C7.06361 20.7597 6.60948 26.2358 6.30769 36H5.23077C4.71801 26.0502 4.13844 20.5472 2 11Z" fill="#FAF7EF"/>
<path d="M11 11C13.6473 11.6739 15.3897 11.7373 18 11C16.0636 20.7597 15.6095 26.2358 15.3077 36H14.2308C13.718 26.0502 13.1384 20.5472 11 11Z" fill="#FAF7EF"/>
<path d="M39.5091 19.3636C39.5091 9.36364 42.4545 5.54545 47.0727 5.54545C51.4364 5.54545 53.6909 9.18182 53.6909 14.6364C53.6909 15.2909 53.7273 16.0545 53.8727 16.6364V17H48.4182C48.3091 16.6364 48.2364 16.0909 48.2364 15.3636V11.5818C48.2364 10.5636 47.8 9.90909 46.9273 9.90909C46.0545 9.90909 45.5091 10.5636 45.5091 11.7636V28.9636C45.5091 30.1636 46.0545 30.8182 46.9273 30.8182C47.8 30.8182 48.2364 30.1636 48.2364 29.1455V23.1818H53.5091V35H50.9636L50.0545 31.2545H49.6909C49.4364 33.4727 48.3091 35.3636 45.5818 35.3636C42.8182 35.3636 39.5091 32.8182 39.5091 23.9091V19.3636ZM54.9616 5.90909H60.2344V10.0909H54.9616V5.90909ZM55.1435 11.7273H60.0526V35H55.1435V11.7273ZM61.8622 5.90909H66.7713V35H61.8622V5.90909ZM80.5446 11.7273V33.9091C80.5446 37.9818 78.4355 40.8182 74.6173 40.8182C70.5446 40.8182 68.7264 37.9818 68.7264 34.7818C68.7264 34.3818 68.6901 33.9455 68.581 33.5455V33.1818H72.9082C73.0537 33.5818 73.0901 34.1273 73.0901 34.9273V35.8C73.0901 36.8909 73.5628 37.5455 74.3991 37.5455C75.2355 37.5455 75.6355 36.8909 75.6355 35.7636V29.9091H75.2719C74.7991 31.2545 73.8173 31.9091 72.3628 31.9091C69.8173 31.9091 68.181 29.9091 68.181 25.5455V18.0909C68.181 14.0909 69.781 11.3636 73.2355 11.3636C75.5991 11.3636 76.7628 13 77.0901 14.6364H77.4537L77.9991 11.7273H80.5446ZM73.0901 26.2364C73.0901 27.4364 73.5628 28.0909 74.3628 28.0909C75.1628 28.0909 75.6355 27.4364 75.6355 26.2364V17.0364C75.6355 15.8364 75.1628 15.1818 74.3628 15.1818C73.5628 15.1818 73.0901 15.8364 73.0901 17.0364V26.2364ZM82.2609 28.6364V18.0909C82.2609 14.0909 83.8609 11.3636 87.3155 11.3636C89.6791 11.3636 90.8428 13 91.17 14.6364H91.5337L92.0791 11.7273H94.6246V35H90.9882L90.6246 32.4545H90.2609C89.9337 33.9091 88.9518 35.3636 86.77 35.3636C83.4973 35.3636 82.2609 32.6364 82.2609 28.6364ZM87.17 29.6909C87.17 30.8909 87.6428 31.5455 88.4428 31.5455C89.2428 31.5455 89.7155 30.8909 89.7155 29.6909V17.0364C89.7155 15.8364 89.2428 15.1818 88.4428 15.1818C87.6428 15.1818 87.17 15.8364 87.17 17.0364V29.6909ZM96.4325 11.7273H99.5234L99.8871 14.6364H100.251C100.833 12.6727 101.96 11.5455 104.142 11.5455C106.433 11.5455 107.56 13 107.742 14.4545H108.105C108.687 12.4545 109.923 11.5455 112.069 11.5455C115.233 11.5455 116.251 13.9091 116.251 17.7273V35H111.342V17.0364C111.342 15.8364 110.869 15.1818 110.069 15.1818C109.269 15.1818 108.796 15.8364 108.796 17.0364V35H103.887V17.0364C103.887 15.8364 103.414 15.1818 102.614 15.1818C101.814 15.1818 101.342 15.8364 101.342 17.0364V35H96.4325V11.7273ZM117.847 28.6364V18.0909C117.847 14.0909 119.447 11.3636 122.901 11.3636C125.265 11.3636 126.429 13 126.756 14.6364H127.12L127.665 11.7273H130.211V35H126.574L126.211 32.4545H125.847C125.52 33.9091 124.538 35.3636 122.356 35.3636C119.083 35.3636 117.847 32.6364 117.847 28.6364ZM122.756 29.6909C122.756 30.8909 123.229 31.5455 124.029 31.5455C124.829 31.5455 125.301 30.8909 125.301 29.6909V17.0364C125.301 15.8364 124.829 15.1818 124.029 15.1818C123.229 15.1818 122.756 15.8364 122.756 17.0364V29.6909ZM139.291 11.7273H143.837V12.0909L141.837 23.1818V23.3636L143.837 34.6364V35H139.291L137.764 26.3818H137.4L135.873 35H131.328V34.6364L133.328 23.3636V23.1818L131.328 12.0909V11.7273H135.873L137.4 20.1636H137.764L139.291 11.7273Z" fill="white"/>
<path d="M6 19H8V25L5.5 26L6 25V19Z" fill="#FAF7EF"/>
<path d="M2.79261 49V42.4545H6.71733V43.1577H3.58523V45.3693H6.4233V46.0724H3.58523V49H2.79261ZM12.1075 42.4545V49H11.3148V42.4545H12.1075ZM16.9367 49V42.4545H17.7293V48.2969H20.7719V49H16.9367ZM25.2392 42.4545H26.1852L28.4096 47.8878H28.4863L30.7108 42.4545H31.6568V49H30.9153V44.027H30.8514L28.8059 49H28.09L26.0446 44.027H25.9807V49H25.2392V42.4545ZM44.0087 49.0895C43.5783 49.0895 43.2075 49.0107 42.8965 48.853C42.5854 48.6953 42.3457 48.479 42.1774 48.2042C42.009 47.9293 41.9249 47.6151 41.9249 47.2614C41.9249 46.9886 41.9824 46.7468 42.0975 46.5359C42.2146 46.3228 42.3755 46.1257 42.5801 45.9446C42.7867 45.7614 43.0243 45.5781 43.2928 45.3949L44.2388 44.6918C44.4242 44.5703 44.5722 44.4403 44.683 44.3018C44.796 44.1634 44.8524 43.9822 44.8524 43.7585C44.8524 43.5923 44.7789 43.4315 44.6319 43.2759C44.487 43.1204 44.2963 43.0426 44.0598 43.0426C43.8936 43.0426 43.7466 43.0852 43.6188 43.1705C43.4931 43.2536 43.394 43.3601 43.3215 43.4901C43.2512 43.6179 43.2161 43.75 43.2161 43.8864C43.2161 44.0398 43.2576 44.1953 43.3407 44.353C43.4259 44.5085 43.5335 44.6683 43.6635 44.8324C43.7956 44.9943 43.932 45.1605 44.0726 45.331L47.0769 49H46.1692L43.6891 46.0085C43.459 45.7315 43.2502 45.4801 43.0627 45.2543C42.8752 45.0284 42.726 44.8058 42.6152 44.5863C42.5044 44.3668 42.449 44.1293 42.449 43.8736C42.449 43.5795 42.514 43.3217 42.644 43.1001C42.7761 42.8764 42.9604 42.7028 43.1969 42.5792C43.4355 42.4535 43.7146 42.3906 44.0343 42.3906C44.3624 42.3906 44.6447 42.4545 44.8812 42.5824C45.1177 42.7081 45.2999 42.8754 45.4277 43.0842C45.5556 43.2908 45.6195 43.5156 45.6195 43.7585C45.6195 44.0717 45.5417 44.3434 45.3862 44.5735C45.2306 44.8036 45.0186 45.0178 44.7502 45.2159L43.4462 46.1875C43.1521 46.4048 42.9529 46.6158 42.8485 46.8203C42.7441 47.0249 42.6919 47.1719 42.6919 47.2614C42.6919 47.4659 42.7452 47.6566 42.8517 47.8335C42.9583 48.0103 43.1085 48.1531 43.3024 48.2617C43.4963 48.3704 43.7232 48.4247 43.9831 48.4247C44.2303 48.4247 44.471 48.3725 44.7054 48.2681C44.9398 48.1616 45.1518 48.0082 45.3414 47.8079C45.5332 47.6076 45.6845 47.3668 45.7953 47.0856C45.9082 46.8043 45.9646 46.4879 45.9646 46.1364H46.6933C46.6933 46.571 46.6433 46.9258 46.5431 47.2006C46.443 47.4755 46.3301 47.6907 46.2044 47.8462C46.0786 48.0018 45.9774 48.1179 45.9007 48.1946C45.8752 48.2266 45.8517 48.2585 45.8304 48.2905C45.8091 48.3224 45.7857 48.3544 45.7601 48.3864C45.5492 48.6229 45.2828 48.7997 44.9611 48.9169C44.6394 49.032 44.3219 49.0895 44.0087 49.0895ZM57.0253 49V42.4545H59.237C59.7505 42.4545 60.1702 42.5472 60.4962 42.7326C60.8244 42.9158 61.0673 43.1641 61.2249 43.4773C61.3826 43.7905 61.4614 44.1399 61.4614 44.5256C61.4614 44.9112 61.3826 45.2617 61.2249 45.5771C61.0694 45.8924 60.8286 46.1438 60.5026 46.3313C60.1766 46.5167 59.759 46.6094 59.2498 46.6094H57.6646V45.9062H59.2242C59.5758 45.9062 59.8581 45.8455 60.0712 45.7241C60.2842 45.6026 60.4387 45.4386 60.5346 45.2319C60.6326 45.0231 60.6816 44.7876 60.6816 44.5256C60.6816 44.2635 60.6326 44.0291 60.5346 43.8224C60.4387 43.6158 60.2832 43.4538 60.068 43.3366C59.8528 43.2173 59.5673 43.1577 59.2114 43.1577H57.818V49H57.0253ZM65.9782 49V42.4545H68.1899C68.7012 42.4545 69.121 42.5419 69.4491 42.7166C69.7772 42.8892 70.0201 43.1268 70.1778 43.4293C70.3355 43.7319 70.4143 44.076 70.4143 44.4616C70.4143 44.8473 70.3355 45.1893 70.1778 45.4876C70.0201 45.7859 69.7783 46.0202 69.4523 46.1907C69.1263 46.359 68.7098 46.4432 68.2027 46.4432H66.4129V45.7273H68.1771C68.5265 45.7273 68.8078 45.6761 69.0209 45.5739C69.236 45.4716 69.3916 45.3267 69.4875 45.1392C69.5855 44.9496 69.6345 44.7237 69.6345 44.4616C69.6345 44.1996 69.5855 43.9705 69.4875 43.7745C69.3895 43.5785 69.2329 43.4272 69.0177 43.3207C68.8025 43.212 68.518 43.1577 68.1643 43.1577H66.7709V49H65.9782ZM69.0592 46.0597L70.67 49H69.7495L68.1643 46.0597H69.0592ZM80.4978 45.7273C80.4978 46.4176 80.3732 47.0142 80.1239 47.517C79.8746 48.0199 79.5326 48.4077 79.0979 48.6804C78.6633 48.9531 78.1668 49.0895 77.6086 49.0895C77.0504 49.0895 76.5539 48.9531 76.1193 48.6804C75.6846 48.4077 75.3426 48.0199 75.0933 47.517C74.844 47.0142 74.7194 46.4176 74.7194 45.7273C74.7194 45.0369 74.844 44.4403 75.0933 43.9375C75.3426 43.4347 75.6846 43.0469 76.1193 42.7741C76.5539 42.5014 77.0504 42.3651 77.6086 42.3651C78.1668 42.3651 78.6633 42.5014 79.0979 42.7741C79.5326 43.0469 79.8746 43.4347 80.1239 43.9375C80.3732 44.4403 80.4978 45.0369 80.4978 45.7273ZM79.7308 45.7273C79.7308 45.1605 79.6359 44.6822 79.4463 44.2923C79.2588 43.9023 79.0042 43.6072 78.6825 43.407C78.3629 43.2067 78.0049 43.1065 77.6086 43.1065C77.2123 43.1065 76.8533 43.2067 76.5315 43.407C76.2119 43.6072 75.9573 43.9023 75.7677 44.2923C75.5802 44.6822 75.4864 45.1605 75.4864 45.7273C75.4864 46.294 75.5802 46.7724 75.7677 47.1623C75.9573 47.5522 76.2119 47.8473 76.5315 48.0476C76.8533 48.2479 77.2123 48.348 77.6086 48.348C78.0049 48.348 78.3629 48.2479 78.6825 48.0476C79.0042 47.8473 79.2588 47.5522 79.4463 47.1623C79.6359 46.7724 79.7308 46.294 79.7308 45.7273ZM87.0904 49H85.0705V42.4545H87.1799C87.8149 42.4545 88.3582 42.5856 88.8099 42.8477C89.2616 43.1076 89.6078 43.4815 89.8486 43.9695C90.0894 44.4553 90.2097 45.0369 90.2097 45.7145C90.2097 46.3963 90.0883 46.9833 89.8454 47.4755C89.6025 47.9656 89.2488 48.3427 88.7843 48.6069C88.3198 48.869 87.7552 49 87.0904 49ZM85.8632 48.2969H87.0393C87.5805 48.2969 88.029 48.1925 88.3848 47.9837C88.7406 47.7749 89.0059 47.4776 89.1806 47.092C89.3553 46.7063 89.4427 46.2472 89.4427 45.7145C89.4427 45.1861 89.3564 44.7312 89.1838 44.3498C89.0112 43.9663 88.7534 43.6722 88.4104 43.4677C88.0673 43.261 87.6401 43.1577 87.1288 43.1577H85.8632V48.2969ZM99.0747 42.4545H99.8674V46.7884C99.8674 47.2358 99.7619 47.6353 99.551 47.9869C99.3421 48.3363 99.047 48.6122 98.6657 48.8146C98.2843 49.0149 97.8368 49.1151 97.3233 49.1151C96.8098 49.1151 96.3624 49.0149 95.981 48.8146C95.5996 48.6122 95.3034 48.3363 95.0925 47.9869C94.8837 47.6353 94.7793 47.2358 94.7793 46.7884V42.4545H95.5719V46.7244C95.5719 47.044 95.6422 47.3285 95.7828 47.5778C95.9235 47.8249 96.1238 48.0199 96.3837 48.1626C96.6458 48.3033 96.959 48.3736 97.3233 48.3736C97.6877 48.3736 98.0009 48.3033 98.263 48.1626C98.525 48.0199 98.7253 47.8249 98.8638 47.5778C99.0044 47.3285 99.0747 47.044 99.0747 46.7244V42.4545ZM109.957 44.5H109.165C109.118 44.272 109.036 44.0717 108.919 43.8991C108.803 43.7266 108.663 43.5817 108.497 43.4645C108.333 43.3452 108.15 43.2557 107.95 43.196C107.75 43.1364 107.541 43.1065 107.324 43.1065C106.927 43.1065 106.568 43.2067 106.247 43.407C105.927 43.6072 105.672 43.9023 105.483 44.2923C105.295 44.6822 105.202 45.1605 105.202 45.7273C105.202 46.294 105.295 46.7724 105.483 47.1623C105.672 47.5522 105.927 47.8473 106.247 48.0476C106.568 48.2479 106.927 48.348 107.324 48.348C107.541 48.348 107.75 48.3182 107.95 48.2585C108.15 48.1989 108.333 48.1104 108.497 47.9933C108.663 47.8739 108.803 47.728 108.919 47.5554C109.036 47.3807 109.118 47.1804 109.165 46.9545H109.957C109.898 47.2891 109.789 47.5884 109.631 47.8526C109.474 48.1168 109.278 48.3416 109.043 48.527C108.809 48.7102 108.546 48.8498 108.254 48.9457C107.964 49.0415 107.654 49.0895 107.324 49.0895C106.765 49.0895 106.269 48.9531 105.834 48.6804C105.4 48.4077 105.058 48.0199 104.808 47.517C104.559 47.0142 104.435 46.4176 104.435 45.7273C104.435 45.0369 104.559 44.4403 104.808 43.9375C105.058 43.4347 105.4 43.0469 105.834 42.7741C106.269 42.5014 106.765 42.3651 107.324 42.3651C107.654 42.3651 107.964 42.413 108.254 42.5089C108.546 42.6048 108.809 42.7454 109.043 42.9308C109.278 43.114 109.474 43.3377 109.631 43.6019C109.789 43.864 109.898 44.1634 109.957 44.5ZM114.12 43.1577V42.4545H119.029V43.1577H116.971V49H116.178V43.1577H114.12ZM124.285 42.4545V49H123.492V42.4545H124.285ZM134.637 45.7273C134.637 46.4176 134.512 47.0142 134.263 47.517C134.014 48.0199 133.672 48.4077 133.237 48.6804C132.803 48.9531 132.306 49.0895 131.748 49.0895C131.19 49.0895 130.693 48.9531 130.258 48.6804C129.824 48.4077 129.482 48.0199 129.233 47.517C128.983 47.0142 128.859 46.4176 128.859 45.7273C128.859 45.0369 128.983 44.4403 129.233 43.9375C129.482 43.4347 129.824 43.0469 130.258 42.7741C130.693 42.5014 131.19 42.3651 131.748 42.3651C132.306 42.3651 132.803 42.5014 133.237 42.7741C133.672 43.0469 134.014 43.4347 134.263 43.9375C134.512 44.4403 134.637 45.0369 134.637 45.7273ZM133.87 45.7273C133.87 45.1605 133.775 44.6822 133.586 44.2923C133.398 43.9023 133.143 43.6072 132.822 43.407C132.502 43.2067 132.144 43.1065 131.748 43.1065C131.352 43.1065 130.992 43.2067 130.671 43.407C130.351 43.6072 130.097 43.9023 129.907 44.2923C129.719 44.6822 129.626 45.1605 129.626 45.7273C129.626 46.294 129.719 46.7724 129.907 47.1623C130.097 47.5522 130.351 47.8473 130.671 48.0476C130.992 48.2479 131.352 48.348 131.748 48.348C132.144 48.348 132.502 48.2479 132.822 48.0476C133.143 47.8473 133.398 47.5522 133.586 47.1623C133.775 46.7724 133.87 46.294 133.87 45.7273ZM144.4 42.4545V49H143.633L140.066 43.8608H140.002V49H139.21V42.4545H139.977L143.556 47.6065H143.62V42.4545H144.4Z" fill="white" fill-opacity="0.46"/>
</svg>
